<svg width="48" height="48" viewBox="0 0 48 48" fill="none" xmlns="http://www.w3.org/2000/svg">
<rect width="48" height="48" fill="url(#paint0_linear)"/>
<path d="M6.32102 25H10.4886V11.9091H6.32102V25ZM8.40909 10.3835C9.59375 10.3835 10.5483 9.48864 10.5483 8.3892C10.5483 7.28977 9.59375 6.40341 8.40909 6.40341C7.23295 6.40341 6.26989 7.28977 6.26989 8.3892C6.26989 9.48864 7.23295 10.3835 8.40909 10.3835Z" fill="#FEFEFE"/>
<rect x="15" y="14" width="24" height="24" rx="2" fill="white"/>
<path d="M22.432 34C21.872 34 21.44 33.848 21.136 33.544C20.832 33.24 20.68 32.808 20.68 32.248V18.832C20.68 18.272 20.832 17.84 21.136 17.536C21.44 17.232 21.872 17.08 22.432 17.08H30.928C32.112 17.08 32.704 17.56 32.704 18.52C32.704 19.496 32.112 19.984 30.928 19.984H24.328V23.944H30.448C31.632 23.944 32.224 24.432 32.224 25.408C32.224 26.368 31.632 26.848 30.448 26.848H24.328V31.096H30.928C32.112 31.096 32.704 31.584 32.704 32.56C32.704 33.52 32.112 34 30.928 34H22.432Z" fill="url(#paint1_linear)"/>
<path d="M24.328 19.984V19.784H24.128V19.984H24.328ZM24.328 23.944H24.128V24.144H24.328V23.944ZM24.328 26.848V26.648H24.128V26.848H24.328ZM24.328 31.096H24.128V31.296H24.328V31.096ZM22.432 33.8C21.9083 33.8 21.5336 33.6587 21.2774 33.4026L20.9946 33.6854C21.3465 34.0373 21.8357 34.2 22.432 34.2V33.8ZM21.2774 33.4026C21.0213 33.1465 20.88 32.7717 20.88 32.248H20.48C20.48 32.8443 20.6427 33.3335 20.9946 33.6854L21.2774 33.4026ZM20.88 32.248V18.832H20.48V32.248H20.88ZM20.88 18.832C20.88 18.3083 21.0213 17.9335 21.2774 17.6774L20.9946 17.3946C20.6427 17.7464 20.48 18.2357 20.48 18.832H20.88ZM21.2774 17.6774C21.5336 17.4213 21.9083 17.28 22.432 17.28V16.88C21.8357 16.88 21.3465 17.0427 20.9946 17.3946L21.2774 17.6774ZM22.432 17.28H30.928V16.88H22.432V17.28ZM30.928 17.28C31.4982 17.28 31.8887 17.3964 32.134 17.5954C32.3714 17.7878 32.504 18.0832 32.504 18.52H32.904C32.904 17.9968 32.7406 17.5722 32.386 17.2846C32.0393 17.0036 31.5418 16.88 30.928 16.88V17.28ZM32.504 18.52C32.504 18.9659 32.3706 19.2676 32.1328 19.4637C31.8875 19.6658 31.4976 19.784 30.928 19.784V20.184C31.5424 20.184 32.0405 20.0582 32.3872 19.7723C32.7414 19.4804 32.904 19.0501 32.904 18.52H32.504ZM30.928 19.784H24.328V20.184H30.928V19.784ZM24.128 19.984V23.944H24.528V19.984H24.128ZM24.328 24.144H30.448V23.744H24.328V24.144ZM30.448 24.144C31.0176 24.144 31.4075 24.2622 31.6528 24.4643C31.8906 24.6604 32.024 24.9621 32.024 25.408H32.424C32.424 24.8779 32.2614 24.4476 31.9072 24.1557C31.5605 23.8698 31.0624 23.744 30.448 23.744V24.144ZM32.024 25.408C32.024 25.8448 31.8914 26.1402 31.654 26.3326C31.4087 26.5316 31.0182 26.648 30.448 26.648V27.048C31.0618 27.048 31.5593 26.9244 31.906 26.6434C32.2606 26.3558 32.424 25.9312 32.424 25.408H32.024ZM30.448 26.648H24.328V27.048H30.448V26.648ZM24.128 26.848V31.096H24.528V26.848H24.128ZM24.328 31.296H30.928V30.896H24.328V31.296ZM30.928 31.296C31.4976 31.296 31.8875 31.4142 32.1328 31.6163C32.3706 31.8124 32.504 32.1141 32.504 32.56H32.904C32.904 32.0299 32.7414 31.5996 32.3872 31.3077C32.0405 31.0218 31.5424 30.896 30.928 30.896V31.296ZM32.504 32.56C32.504 32.9968 32.3714 33.2922 32.134 33.4846C31.8887 33.6836 31.4982 33.8 30.928 33.8V34.2C31.5418 34.2 32.0393 34.0764 32.386 33.7954C32.7406 33.5078 32.904 33.0832 32.904 32.56H32.504ZM30.928 33.8H22.432V34.2H30.928V33.8Z" fill="#F02A2A"/>
<defs>
<linearGradient id="paint0_linear" x1="55" y1="32.1081" x2="-15.2966" y2="-1.47253" gradientUnits="userSpaceOnUse">
<stop stop-color="#E80A0A"/>
<stop offset="0.0001" stop-color="#E30909"/>
<stop offset="1" stop-color="#0085FF"/>
</linearGradient>
<linearGradient id="paint1_linear" x1="30" y1="10" x2="30" y2="27" gradientUnits="userSpaceOnUse">
<stop stop-color="#0E38CD"/>
<stop offset="1" stop-color="#0E38CD" stop-opacity="0.65"/>
</linearGradient>
</defs>
</svg>
